<svg width="0" height="0" class="hidden">
  <symbol xmlns="http://www.w3.org/2000/svg" viewBox="0 0 512.001 512.001" id="barbell">
    <path d="M317.648 194.353c-3.91-3.9-10.24-3.9-14.14 0-3.91 3.91-3.91 10.24 0 14.139 3.9 3.91 10.23 3.91 14.14 0 3.9-3.9 3.9-10.229 0-14.139z"></path>
    <path d="M500.274 195.562l-14.14-14.139c.521-.762 15.859-13.252 15.859-36.564 0-13.358-5.204-25.914-14.651-35.355l-7.071-7.071 7.066-7.072c19.541-19.513 19.561-51.174.007-70.701-19.533-19.546-51.16-19.558-70.698-.006l-7.079 7.074-7.069-7.069c-19.535-19.549-51.171-19.556-70.713-.002l-1.209 1.209-14.138-14.138c-15.631-15.63-40.929-15.641-56.567-.003-15.635 15.623-15.643 40.935-.003 56.563l56.567 56.567-191.581 191.58-56.561-56.561c-15.605-15.63-40.945-15.653-56.563-.009-15.639 15.627-15.641 40.935-.002 56.575l14.138 14.138-1.206 1.206c-19.549 19.535-19.556 51.171-.002 70.713l7.071 7.071-7.066 7.072c-19.541 19.513-19.561 51.174-.007 70.702 19.533 19.544 51.158 19.559 70.7.005l7.079-7.074 7.069 7.069c19.535 19.549 51.171 19.557 70.713.002l1.208-1.208 14.138 14.139c15.632 15.631 40.931 15.64 56.568.003 15.635-15.623 15.643-40.935.003-56.563l-56.567-56.567 191.58-191.58 56.561 56.561c15.605 15.63 40.945 15.653 56.563.009 15.639-15.629 15.641-40.937.003-56.576zM430.788 38.797c11.691-11.7 30.658-11.763 42.418.007 11.72 11.703 11.733 30.689-.007 42.414l-7.068 7.074-42.422-42.422 7.079-7.073zm-84.858 0c11.72-11.728 30.697-11.735 42.424.002l84.849 84.849c11.728 11.72 11.735 30.697-.002 42.424l-1.208 1.209L344.719 40.008l1.211-1.211zM81.212 473.204c-11.691 11.7-30.658 11.763-42.418-.007-11.72-11.703-11.733-30.689.007-42.414l7.068-7.074 42.422 42.422-7.079 7.073zm84.858 0c-11.72 11.728-30.697 11.735-42.424-.002l-84.849-84.849c-11.728-11.72-11.735-30.697.002-42.424l1.208-1.209L167.28 471.993l-1.21 1.211zm71.922-15.346c7.816 7.807 7.822 20.457-.002 28.274-7.836 7.836-20.481 7.805-28.287 0L25.869 302.298c-7.753-7.753-7.886-20.407.006-28.293 7.779-7.792 20.443-7.835 28.27.006l183.847 183.847zm-56.569-84.855l-42.425-42.425 191.58-191.58 42.425 42.426-191.58 191.579zm304.702-135.007c-7.779 7.792-20.443 7.835-28.27-.006L274.008 54.144c-7.815-7.807-7.821-20.457.003-28.274 7.836-7.836 20.48-7.805 28.287 0l183.833 183.834c7.753 7.752 7.886 20.407-.006 28.292z"></path>
    <path d="M289.361 222.641c-3.906-3.906-10.238-3.906-14.143 0l-80.867 80.867c-3.905 3.905-3.905 10.237 0 14.143 3.905 3.905 10.237 3.905 14.142 0l80.867-80.867c3.906-3.906 3.906-10.237.001-14.143z"></path>
  </symbol>
  <symbol xmlns="http://www.w3.org/2000/svg" viewBox="0 0 441.133 441.133" id="big-stopwatch">
    <path d="M259.161 70.727V47.574h4.027a6 6 0 0 0 6-6V28.119C269.189 12.614 256.574 0 241.07 0h-41.007c-15.505 0-28.119 12.614-28.119 28.119v13.456a6 6 0 0 0 6 6h4.03v23.153c-27.492 5.785-52.779 17.62-74.404 34.043L93.81 91.01c-4.824-4.822-12.673-4.822-17.497 0l-16.997 16.997a12.292 12.292 0 0 0-3.624 8.749c0 3.305 1.287 6.412 3.624 8.749l13.54 13.54c-24.738 31.737-39.497 71.616-39.497 114.88 0 103.227 83.981 187.208 187.208 187.208s187.207-83.981 187.207-187.208c0-89.999-63.841-165.36-148.613-183.198zm-75.217-42.608c0-8.888 7.231-16.119 16.119-16.119h41.007c8.888 0 16.119 7.231 16.119 16.119v7.456h-73.245v-7.456zm10.03 19.892h53.188v20.604a188.01 188.01 0 0 0-26.595-1.898c-9.027 0-17.903.656-26.593 1.897V48.011zM67.801 117.02c-.03-.03-.109-.109-.109-.264 0-.154.08-.233.109-.263l16.997-16.997a.372.372 0 0 1 .527 0l12.867 12.867a188.948 188.948 0 0 0-17.625 17.423L67.801 117.02zm152.766 312.113c-96.61 0-175.208-78.598-175.208-175.208S123.957 78.718 220.567 78.718c96.609 0 175.207 78.598 175.207 175.208s-78.598 175.207-175.207 175.207z"></path>
    <path d="M220.567 107.94c-80.497 0-145.985 65.489-145.985 145.985S140.071 399.91 220.567 399.91c80.497 0 145.985-65.489 145.985-145.985S301.064 107.94 220.567 107.94zm0 279.971c-73.88 0-133.985-60.105-133.985-133.985S146.687 119.94 220.567 119.94s133.985 60.105 133.985 133.985-60.105 133.986-133.985 133.986z"></path>
    <path d="M226.445 176.063a6 6 0 0 0-11.756 0s-15.812 75.082-15.812 77.862c0 11.959 9.73 21.689 21.689 21.689s21.688-9.729 21.688-21.689c.001-2.78-15.809-77.862-15.809-77.862zm-5.878 31.128l5.258 25.693a21.66 21.66 0 0 0-10.517 0l5.259-25.693zm0 56.423c-5.343 0-9.689-4.347-9.689-9.689s4.347-9.689 9.689-9.689 9.688 4.347 9.688 9.689-4.347 9.689-9.688 9.689zm-.001 83.233a6 6 0 0 0-6 6v23.235a6 6 0 0 0 12 0v-23.235a6 6 0 0 0-6-6zm0-185.845a6 6 0 0 0 6-6v-23.235a6 6 0 0 0-12 0v23.235a6 6 0 0 0 6 6zm-74.188 158.63l-16.43 16.43a6 6 0 1 0 8.486 8.485l16.43-16.43a6 6 0 1 0-8.486-8.485zm144.143-129.657a6.002 6.002 0 0 0 4.244-1.759l16.421-16.43a6 6 0 0 0-8.488-8.483l-16.254 16.264a5.984 5.984 0 0 0-1.928 4.408c0 3.313 2.691 6 6.005 6zm-168.882 57.954H98.404a6 6 0 0 0 0 12h23.235a6 6 0 0 0 0-12zm221.081-.009h-23.227a6 6 0 0 0 0 12h23.227a6 6 0 0 0 0-12zm-196.352-59.704a6 6 0 0 0 4.244 1.759h.009a5.997 5.997 0 0 0 4.142-10.335l-16.328-16.336a5.999 5.999 0 0 0-8.485-.002 5.999 5.999 0 0 0-.002 8.485l16.42 16.429zm148.387 131.416a5.999 5.999 0 0 0-8.485 0 5.999 5.999 0 0 0-.001 8.485l16.43 16.43a5.98 5.98 0 0 0 4.243 1.757 5.999 5.999 0 0 0 4.243-10.242l-16.43-16.43z"></path>
  </symbol>
  <symbol xmlns="http://www.w3.org/2000/svg" viewBox="0 0 550.795 550.795" id="black-back-closed-envelope-shape">
    <path d="M501.613 491.782c12.381 0 23.109-4.088 32.229-12.16L377.793 323.567a2878.213 2878.213 0 0 0-10.801 7.767c-11.678 8.604-21.156 15.318-28.434 20.129-7.277 4.822-16.959 9.737-29.045 14.755-12.094 5.024-23.361 7.528-33.813 7.528h-.612c-10.453 0-21.72-2.503-33.813-7.528-12.093-5.018-21.775-9.933-29.045-14.755-7.277-4.811-16.75-11.524-28.434-20.129a1351.934 1351.934 0 0 0-10.771-7.809L16.946 479.622c9.119 8.072 19.854 12.16 32.234 12.16h452.433zM31.047 225.299C19.37 217.514 9.015 208.598 0 198.555V435.98l137.541-137.541c-27.516-19.21-62.969-43.562-106.494-73.14zm489.012 0c-41.865 28.336-77.447 52.73-106.75 73.195l137.486 137.492V198.555c-8.815 9.841-19.059 18.751-30.736 26.744z"></path>
    <path d="M501.613 59.013H49.181c-15.784 0-27.919 5.33-36.42 15.979C4.253 85.646.006 98.97.006 114.949c0 12.907 5.636 26.892 16.903 41.959 11.267 15.061 23.256 26.891 35.961 35.496 6.965 4.921 27.969 19.523 63.012 43.801a20367.497 20367.497 0 0 1 49.505 34.395 8855.122 8855.122 0 0 1 31.022 21.701c.985.691 2.534 1.799 4.59 3.269 2.215 1.591 5.018 3.61 8.476 6.107 6.659 4.816 12.191 8.709 16.597 11.683 4.4 2.975 9.731 6.298 15.985 9.988 6.249 3.685 12.143 6.456 17.675 8.299 5.533 1.842 10.655 2.766 15.367 2.766h.612c4.711 0 9.834-.924 15.368-2.766 5.531-1.843 11.42-4.608 17.674-8.299 6.248-3.69 11.572-7.02 15.986-9.988 4.406-2.974 9.938-6.866 16.598-11.683 3.451-2.497 6.254-4.517 8.469-6.102a643.575 643.575 0 0 1 4.596-3.274c6.684-4.651 17.1-11.892 31.104-21.616 25.482-17.705 63.01-43.764 112.742-78.281 14.957-10.447 27.453-23.054 37.496-37.803 10.025-14.749 15.051-30.22 15.051-46.408 0-13.525-4.873-25.098-14.598-34.737-9.736-9.627-21.265-14.443-34.584-14.443z"></path>
  </symbol>
  <symbol viewBox="0 -9 512 512" xmlns="http://www.w3.org/2000/svg" id="calendar">
    <path d="M7.5 364.832a7.5 7.5 0 0 0 7.5-7.5V138.891h443.129v82.441a7.5 7.5 0 0 0 7.5 7.5c4.144 0 7.5-3.355 7.5-7.5V73.109c0-25.144-20.457-45.601-45.598-45.601h-19.668v-9.29C407.863 8.173 399.691 0 389.645 0H375.71c-10.043 0-18.215 8.172-18.215 18.219v9.289h-49.742v-9.29C307.754 8.173 299.582 0 289.535 0h-13.933c-10.043 0-18.215 8.172-18.215 18.219v9.289H207.64v-9.29C207.64 8.173 199.469 0 189.42 0h-13.929c-10.047 0-18.219 8.172-18.219 18.219v9.289H107.53v-9.29C107.531 8.173 99.36 0 89.313 0h-13.93C65.336 0 57.164 8.172 57.164 18.219v9.289H45.602C20.457 27.508 0 47.965 0 73.109v284.223a7.5 7.5 0 0 0 7.5 7.5zM372.496 18.219A3.224 3.224 0 0 1 375.715 15h13.933a3.22 3.22 0 0 1 3.215 3.219v36.437a3.22 3.22 0 0 1-3.215 3.219h-13.933a3.222 3.222 0 0 1-3.219-3.219zm-100.11 0A3.22 3.22 0 0 1 275.603 15h13.933a3.224 3.224 0 0 1 3.219 3.219v36.437a3.224 3.224 0 0 1-3.219 3.219h-13.933a3.218 3.218 0 0 1-3.215-3.219zm-100.113 0a3.224 3.224 0 0 1 3.22-3.219h13.933a3.224 3.224 0 0 1 3.219 3.219v36.437a3.224 3.224 0 0 1-3.22 3.219h-13.933a3.222 3.222 0 0 1-3.219-3.219zm-100.109 0A3.224 3.224 0 0 1 75.383 15h13.933a3.22 3.22 0 0 1 3.215 3.219v36.437a3.22 3.22 0 0 1-3.215 3.219H75.383a3.222 3.222 0 0 1-3.219-3.219zM45.602 42.508h11.562v12.148c0 10.047 8.172 18.219 18.219 18.219h13.933c10.043 0 18.215-8.172 18.215-18.219V42.508h49.746v12.148c0 10.047 8.172 18.219 18.215 18.219h13.934c10.047 0 18.219-8.172 18.219-18.219V42.508h49.742v12.148c0 10.047 8.172 18.219 18.218 18.219h13.934c10.043 0 18.215-8.172 18.215-18.219V42.508h49.742v12.148c0 10.047 8.172 18.219 18.219 18.219h13.933c10.043 0 18.215-8.172 18.215-18.219V42.508h19.668c16.875 0 30.602 13.726 30.602 30.601v50.782H15V73.109c0-16.875 13.727-30.601 30.602-30.601zM84.91 434.582H19.512A4.516 4.516 0 0 1 15 430.07v-38.558a7.5 7.5 0 1 0-15 0v38.558c0 10.758 8.754 19.512 19.512 19.512H84.91a7.5 7.5 0 1 0 0-15zm0 0"></path>
    <path d="M84.66 160.762H58.59a7.5 7.5 0 1 0 0 15h26.07a7.5 7.5 0 1 0 0-15zm54.047 15h26.07a7.5 7.5 0 1 0 0-15h-26.07a7.5 7.5 0 1 0 0 15zm80.117 0h26.067a7.5 7.5 0 1 0 0-15h-26.067a7.5 7.5 0 0 0-7.5 7.5c0 4.144 3.356 7.5 7.5 7.5zm80.114 0h26.07a7.5 7.5 0 1 0 0-15h-26.07a7.5 7.5 0 1 0 0 15zm106.183-15h-26.066a7.5 7.5 0 0 0-7.5 7.5c0 4.144 3.355 7.5 7.5 7.5h26.066a7.5 7.5 0 1 0 0-15zM84.66 198.477H58.59a7.5 7.5 0 0 0-7.5 7.5 7.5 7.5 0 0 0 7.5 7.5h26.07a7.5 7.5 0 0 0 7.5-7.5 7.5 7.5 0 0 0-7.5-7.5zm54.047 15h26.07a7.5 7.5 0 0 0 7.5-7.5 7.5 7.5 0 0 0-7.5-7.5h-26.07a7.5 7.5 0 0 0-7.5 7.5 7.5 7.5 0 0 0 7.5 7.5zm80.117 0h26.067a7.5 7.5 0 0 0 7.5-7.5 7.5 7.5 0 0 0-7.5-7.5h-26.067a7.497 7.497 0 0 0-7.5 7.5c0 4.144 3.356 7.5 7.5 7.5zm80.114 0h26.07a7.5 7.5 0 0 0 7.5-7.5 7.5 7.5 0 0 0-7.5-7.5h-26.07a7.5 7.5 0 0 0-7.5 7.5 7.5 7.5 0 0 0 7.5 7.5zm106.183-15h-26.066a7.497 7.497 0 0 0-7.5 7.5c0 4.144 3.355 7.5 7.5 7.5h26.066a7.5 7.5 0 0 0 7.5-7.5 7.5 7.5 0 0 0-7.5-7.5zM138.89 360.715l38.563 38.562c5.578 5.578 12.992 8.649 20.883 8.649 7.89 0 15.309-3.07 20.883-8.649l105.605-105.605c11.516-11.516 11.516-30.254 0-41.77s-30.254-11.515-41.77 0l-84.718 84.72-17.68-17.677c-11.511-11.515-30.25-11.515-41.77 0-11.511 11.516-11.511 30.254.005 41.77zm10.606-31.164a14.491 14.491 0 0 1 10.277-4.25c3.723 0 7.446 1.418 10.278 4.25l22.98 22.98a7.497 7.497 0 0 0 10.606 0l90.023-90.02c5.672-5.667 14.89-5.667 20.555-.003 5.668 5.668 5.668 14.89 0 20.558L208.613 388.668a14.437 14.437 0 0 1-10.277 4.258 14.437 14.437 0 0 1-10.277-4.258l-38.563-38.563c-5.668-5.668-5.668-14.886 0-20.554zm0 0"></path>
    <path d="M473.129 315.36v-59.848c0-4.145-3.356-7.5-7.5-7.5a7.5 7.5 0 0 0-7.5 7.5v50.281c-13.676-7.09-29.195-11.102-45.633-11.102-54.867 0-99.504 44.637-99.504 99.504 0 14.371 3.067 28.035 8.57 40.387H119.086a7.5 7.5 0 1 0 0 15H329.87c17.879 26.59 48.242 44.117 82.625 44.117 54.867 0 99.504-44.637 99.504-99.504 0-32.062-15.25-60.629-38.871-78.836zM412.496 478.7c-46.598 0-84.504-37.907-84.504-84.505 0-46.597 37.91-84.504 84.504-84.504S497 347.598 497 394.195c0 46.598-37.91 84.504-84.504 84.504zm0 0"></path>
    <path d="M412.496 320.527c-40.621 0-73.668 33.051-73.668 73.668 0 40.621 33.047 73.668 73.668 73.668s73.664-33.047 73.664-73.668c0-40.617-33.047-73.668-73.664-73.668zm6.715 131.938a7.48 7.48 0 0 0 .785-3.324v-9.137c0-4.14-3.36-7.5-7.5-7.5s-7.5 3.36-7.5 7.5v9.137c0 1.195.285 2.32.785 3.324-26.992-3.09-48.465-24.563-51.554-51.555 1 .5 2.128.785 3.324.785h9.133c4.144 0 7.5-3.355 7.5-7.5 0-4.144-3.356-7.5-7.5-7.5h-9.133c-1.196 0-2.324.29-3.324.785 3.09-26.992 24.562-48.464 51.554-51.554a7.427 7.427 0 0 0-.785 3.324v9.137a7.5 7.5 0 1 0 15 0v-9.137a7.48 7.48 0 0 0-.785-3.324c26.992 3.09 48.465 24.562 51.555 51.554a7.48 7.48 0 0 0-3.325-.785h-9.136a7.5 7.5 0 0 0-7.5 7.5 7.5 7.5 0 0 0 7.5 7.5h9.136c1.196 0 2.32-.285 3.325-.785-3.094 26.992-24.563 48.465-51.555 51.555zm0 0"></path>
    <path d="M429.027 386.695h-9.03v-7.691a7.5 7.5 0 1 0-15 0v15.191c0 4.145 3.355 7.5 7.5 7.5h16.53a7.5 7.5 0 0 0 7.5-7.5 7.5 7.5 0 0 0-7.5-7.5zm0 0"></path>
  </symbol>
  <symbol xmlns="http://www.w3.org/2000/svg" viewBox="0 0 348.077 348.077" id="call-answer">
    <path d="M340.273 275.083l-53.755-53.761c-10.707-10.664-28.438-10.34-39.518.744l-27.082 27.076a792.327 792.327 0 0 1-5.344-2.973c-17.102-9.476-40.509-22.464-65.14-47.113-24.704-24.701-37.704-48.144-47.209-65.257-1.003-1.813-1.964-3.561-2.913-5.221l18.176-18.149 8.936-8.947c11.097-11.1 11.403-28.826.721-39.521L73.39 8.194c-10.682-10.68-28.421-10.356-39.518.744l-15.15 15.237.414.411c-5.08 6.482-9.325 13.958-12.484 22.02C3.74 54.28 1.927 61.603 1.098 68.941-6 127.785 20.89 181.564 93.866 254.541c100.875 100.868 182.167 93.248 185.674 92.876 7.638-.913 14.958-2.738 22.397-5.627 7.992-3.122 15.463-7.361 21.941-12.43l.331.294 15.348-15.029c11.074-11.098 11.393-28.83.716-39.542z"></path>
  </symbol>
  <symbol viewBox="-33 -144 1065 1065" xmlns="http://www.w3.org/2000/svg" id="cardio">
    <path d="M981.793 402.395h-61.219c88.574-184.223-12.015-367.407-178.36-404.793-7.882-1.77-15.702 3.183-17.468 11.062-1.777 7.879 3.172 15.707 11.059 17.477 151.484 34.062 243.191 205.71 152.312 376.254h-54.25L783.305 300.75c-5.836-11.73-23-10.422-27.008 2.02l-46.672 144.67-52.375-119.48c-3.242-7.406-11.867-10.77-19.273-7.531-7.391 3.25-10.762 11.875-7.512 19.273l67.844 154.79c5.394 12.288 23.203 11.405 27.32-1.391l47.476-147.18 38.61 77.613a14.643 14.643 0 0 0 13.101 8.113h45.532c-93.192 141.575-294.95 249.54-373.149 303.692-124.73-80.813-290.117-177.559-373.144-303.692h70.886a14.64 14.64 0 0 0 13.157-8.234l62.46-128.496 78.247 229.621c4.574 13.43 23.828 13.082 27.863-.574l61.898-209.39 55.817 93.823c6.183 10.403 21.594 9.184 26.12-1.976l66.923-164.895 19.988 45.582c3.242 7.403 11.863 10.762 19.262 7.528 7.394-3.246 10.758-11.871 7.523-19.266l-33.89-77.336c-5.25-11.96-22.141-11.476-26.957.38l-68.887 169.733-57.875-97.293c-6.5-10.925-22.98-8.882-26.59 3.336l-58.34 197.387-74.879-219.734c-4.187-12.313-21.277-13.426-26.996-1.68l-73.988 152.23h-79.512C3.5 209.509 134.238 20.243 311.88 20.243c66.617 0 128.684 26.528 174.75 74.68 5.758 6.023 15.387 6.023 21.14 0 40.192-42.004 94.063-68.14 151.688-73.59 8.047-.758 13.953-7.895 13.191-15.941-.761-8.036-7.902-13.942-15.937-13.184-59.703 5.656-115.79 31.07-159.504 72.027C446.832 16.894 381.59-9.008 311.879-9.008c-192.414 0-339.48 200.461-238.05 411.403h-61.22c-8.074 0-14.629 6.546-14.629 14.625s6.555 14.628 14.63 14.628h77.136c84.156 141.368 261.91 244.239 399.524 333.395a14.578 14.578 0 0 0 15.863 0c137.422-89.035 315.344-191.988 399.523-333.395h77.137c8.074 0 14.625-6.55 14.625-14.628s-6.55-14.625-14.625-14.625zm0 0"></path>
  </symbol>
  <symbol viewBox="0 0 386.667 386.667" xmlns="http://www.w3.org/2000/svg" id="close">
    <path d="M386.667 45.564L341.103 0l-147.77 147.769L45.564 0 0 45.564l147.769 147.769L0 341.103l45.564 45.564 147.769-147.769 147.769 147.769 45.564-45.564-147.768-147.77z"></path>
  </symbol>
  <symbol xmlns="http://www.w3.org/2000/svg" viewBox="0 0 480.288 480.288" id="diet">
    <path d="M290.976 277.8c-.752-.992-1.456-2.024-2.232-3l-.8-1.024c-31.552-39.413-37.302-93.577-14.728-138.736l.728-1.44A609.732 609.732 0 0 0 320.048 8.984l-15.52-3.888a593.64 593.64 0 0 1-44.888 121.36l-.728 1.44c-25.364 50.749-18.893 111.616 16.576 155.896l.8 1.024a131.521 131.521 0 0 1 9.92 14.264l11.464 19.16a130.11 130.11 0 0 1 11.792 25.6c1.6 4.8 3.048 9.672 4.392 14.528-56.928 5.216-128.768 8.672-213.568 8.672-33.904 0-67.456-.592-99.712-1.752l-.576 16c32.456 1.168 66.192 1.76 100.288 1.76 3.36-.008 23.128-.008 52-.648v88.64a8 8 0 0 0 8 8h32a8 8 0 0 0 8-8v-90.016c36.8-1.336 79.32-3.552 120-7.2v97.216a8 8 0 0 0 8 8h32a8 8 0 0 0 8-8V368.544c37.936-4.976 70.824-11.656 90.968-20.64l-7.248 31.424a218.021 218.021 0 0 1-41.968 86.712l12.496 10a234.287 234.287 0 0 0 45.064-93.112l12-52a12.44 12.44 0 0 0 .688-3.888c0-8.608-.056-34.712-189.312-49.24zM184.288 463.04h-16v-80h16v80zm168 0h-16v-88h16v88zM464.08 327.184c-5.68 9.552-52.712 21.4-134.064 29.688-1.648-6.048-3.384-12.08-5.368-18.056a145.693 145.693 0 0 0-13.256-28.8l-9.144-15.24C424.36 304.984 460 320.912 464.08 327.04v.144z"></path>
    <path d="M64.288 279.04v16a8 8 0 0 1 0 16v16c13.255 0 24-10.745 24-24s-10.745-24-24-24zm0 120c-17.673 0-32 14.327-32 32 0 17.673 14.327 32 32 32s32-14.327 32-32c0-17.673-14.327-32-32-32zm0 48c-8.837 0-16-7.163-16-16s7.163-16 16-16 16 7.163 16 16-7.163 16-16 16zm360-264h16v16h-16zm-32 0h16v16h-16zm-32 0h16v16h-16zm-32 0h16v16h-16z"></path>
    <path d="M341.944 156.696l-11.312-11.312-40 40a8 8 0 0 0 0 11.312l40 40 11.312-11.312L307.6 191.04l34.344-34.344zM249.888 1.704a88.12 88.12 0 0 1-65.6 29.336 88.055 88.055 0 0 1-66-29.792l-12 10.592a104.067 104.067 0 0 0 78 35.2A104.16 104.16 0 0 0 261.8 12.376L249.888 1.704z"></path>
  </symbol>
  <symbol xmlns="http://www.w3.org/2000/svg" viewBox="0 0 96.124 96.123" id="facebook-logo">
    <path d="M72.089.02L59.624 0C45.62 0 36.57 9.285 36.57 23.656v10.907H24.037a1.96 1.96 0 0 0-1.96 1.961v15.803a1.96 1.96 0 0 0 1.96 1.96H36.57v39.876a1.96 1.96 0 0 0 1.96 1.96h16.352a1.96 1.96 0 0 0 1.96-1.96V54.287h14.654a1.96 1.96 0 0 0 1.96-1.96l.006-15.803a1.963 1.963 0 0 0-1.961-1.961H56.842v-9.246c0-4.444 1.059-6.7 6.848-6.7l8.397-.003a1.96 1.96 0 0 0 1.959-1.96V1.98A1.96 1.96 0 0 0 72.089.02z"></path>
  </symbol>
  <symbol xmlns="http://www.w3.org/2000/svg" viewBox="0 0 511.999 511.999" id="fruit">
    <path d="M473.851 228.231H448.5a74.798 74.798 0 0 0-2.138-11.685c-2.597-9.729-1.664-20.149 2.626-29.341 2.996-6.419 4.838-12.922 5.473-19.326 1.528-15.385-3.339-28.105-13.762-36.58l4.518-8.182a7.5 7.5 0 1 0-13.13-7.252l-4.505 8.159c-5.207-1.765-10.521-2.36-15.819-1.795 6.329-30.646 2.47-56.124-2.615-73.384l8.554-26.424a15.455 15.455 0 0 0-1.562-12.908 15.46 15.46 0 0 0-10.852-7.167L390.926.173a15.545 15.545 0 0 0-11.857 3.117 15.54 15.54 0 0 0-5.873 10.765l-2.607 28.19c-13.976 27.197-37.96 66.39-74.518 103.292a69.785 69.785 0 0 0-6.942-2.943c-9.956-32.185-39.768-54.351-73.794-54.351a77.182 77.182 0 0 0-67.906 40.387c-11.353-13.169-23.036-19.523-34.803-18.862-12.653.695-31.109 10.128-47.183 51.114-8.62 21.981-14.315 48.584-14.624 67.35H38.148c-17.619 0-31.953 14.335-31.953 31.954 0 15.804 11.536 28.958 26.628 31.502v48.982c0 45.582 17.871 88.557 50.321 121.008s75.425 50.321 121.008 50.321h103.696c45.582 0 88.558-17.871 121.008-50.321 32.45-32.45 50.321-75.425 50.321-121.008v-48.982c15.092-2.544 26.628-15.697 26.628-31.502-.001-17.62-14.335-31.955-31.954-31.955zm-53.721-90.715s-4.863 7.78 2.02 11.856c6.883 4.076 11.112-4.606 11.112-4.606 5.074 5.237 7.181 12.482 6.273 21.631-.469 4.716-1.86 9.583-4.139 14.464-5.777 12.378-7.03 26.425-3.526 39.552a59.878 59.878 0 0 1 1.533 7.817H315.572a58.078 58.078 0 0 1 5.623-18.782c7.217-14.595 19.702-25.355 35.157-30.3 13.27-4.247 24.621-12.778 31.964-24.021 3.082-4.718 6.504-8.555 10.171-11.403 7.257-5.639 14.509-7.712 21.643-6.208zM388.315 15.1c.163-.128 14.949 2.109 15.067 2.299.116.189-7.197 22.781-7.197 22.781l-10.166-1.909s2.132-23.043 2.296-23.171zm-6.918 38.852c-4.154 18.181-9.215 35.274-15.089 50.91a7.498 7.498 0 0 0 4.383 9.658c.869.327 7.231 1.584 9.658-4.383 6.522-16.033 11.326-33.875 15.621-52.635 4.358 17.055 6.827 41.47-.988 70.493-1.921 1.134-11.582 7.733-19.224 18.93-5.242 7.681-12.814 13.839-21.918 17.221a269.948 269.948 0 0 0 14.062-25.135 7.5 7.5 0 0 0-13.457-6.627c-7.754 15.744-16.67 30.008-26.578 42.563-5.012-8.265-11.378-15.486-18.776-21.27 34.465-35.385 57.87-72.494 72.306-99.725zm-166.065 49.289c24.438 0 46.171 14.187 56.292 35.627-8.122-.576-16.258.407-24.048 3.019a61.4 61.4 0 0 0-16.851 8.748c-2.038-2.95-5.955-4.099-9.319-2.535a7.495 7.495 0 0 0-4.329 7.17c-6.437.078-12.788 1.129-18.892 3.176-9.361 3.138-17.654 8.419-24.495 15.36-4.776-11.601-10.29-22.353-16.152-31.48a62.193 62.193 0 0 1 57.794-39.085zM79.404 166.357c9.974-25.433 22.699-40.989 34.041-41.613.254-.014 24.77-5.238 49.646 63.196a72.62 72.62 0 0 0-6.043 14.065 7.5 7.5 0 0 0 4.943 9.385c.739.229 7.521 1.167 9.385-4.943 5.025-16.47 16.55-28.936 31.577-33.777 10.204-3.287 18.765-2.484 20.34-2.7l2.867 6.173c3.765 6.652 8.938 4.118 9.961 3.643a7.499 7.499 0 0 0 3.643-9.961l-2.493-5.367c.403-.285 6.639-5.4 15.072-8.346 12.353-4.316 26.064-2.901 38.459 3.545 11.424 5.94 20.855 15.769 26.917 27.921-10.939 9.112-16.389 31.813-17.246 40.654H65.804c.298-18.633 6.761-44.434 13.6-61.875zm338.844 284.714C389.713 481.733 349.423 497 307.847 497H204.152c-41.576 0-81.77-15.356-110.401-45.928-47.749-50.984-45.928-112.646-45.928-112.646l30.015 16.7c5.135 2.857 10.769 4.286 16.402 4.286 5.632 0 11.266-1.429 16.4-4.285a7.5 7.5 0 0 0-7.293-13.107c-5.703 3.173-12.514 3.173-18.217-.001l-37.308-20.758V292.14h416.354v29.12l-37.317 20.76c-5.703 3.172-12.513 3.172-18.214 0l-28.417-15.809c-10.271-5.715-22.532-5.714-32.802.001l-28.406 15.807c-5.705 3.173-12.515 3.172-18.218 0l-28.409-15.807c-10.271-5.714-22.534-5.716-32.803 0l-28.406 15.806c-5.704 3.174-12.514 3.174-18.218 0l-28.405-15.806c-10.271-5.714-22.534-5.716-32.803 0a7.5 7.5 0 0 0 7.293 13.107c5.705-3.174 12.514-3.173 18.217 0l28.405 15.806c10.269 5.714 22.533 5.716 32.804 0l28.406-15.806c5.703-3.174 12.514-3.174 18.217 0l28.409 15.807c10.271 5.714 22.532 5.712 32.803 0l28.407-15.807c5.705-3.174 12.515-3.173 18.216-.001l28.417 15.809c5.135 2.857 10.767 4.286 16.4 4.285 5.632 0 11.266-1.429 16.399-4.285l30.024-16.703c.001.002 1.012 62.212-45.927 112.647zm55.603-173.932H38.148c-9.348 0-16.953-7.605-16.953-16.954s7.605-16.954 16.953-16.954h435.704c9.348 0 16.953 7.605 16.953 16.954-.001 9.349-7.606 16.954-16.954 16.954z"></path>
  </symbol>
  <symbol xmlns="http://www.w3.org/2000/svg" viewBox="0 0 57.949 57.949" id="internet">
    <path d="M29.975 27.985h11.972a34.935 34.935 0 0 0-2.664-12.477 36.873 36.873 0 0 1-9.308 1.44v11.037zm10.409-14.928a34.821 34.821 0 0 0 8.328-4.169l.653-.5C44.588 3.658 38.18.58 31.071.069l-.518.421c4.214 3.489 7.546 7.778 9.831 12.567zM29.975 2.628v12.32a34.975 34.975 0 0 0 8.473-1.283 34.976 34.976 0 0 0-8.473-11.037zm11.556 39.574a36.863 36.863 0 0 1 8.885 4.639l.868.65a28.858 28.858 0 0 0 6.665-17.505H43.947a36.93 36.93 0 0 1-2.416 12.216zM9.237 8.888a34.877 34.877 0 0 0 8.328 4.169C19.85 8.269 23.182 3.98 27.397.49l-.518-.421c-7.125.512-13.547 3.603-18.328 8.35l.686.469zm18.738-6.26a34.98 34.98 0 0 0-8.473 11.036 34.926 34.926 0 0 0 8.473 1.283V2.628zM14.003 29.985H0A28.866 28.866 0 0 0 6.665 47.49l.85-.635a36.994 36.994 0 0 1 8.906-4.652 36.889 36.889 0 0 1-2.418-12.218zm2.749-15.095a36.864 36.864 0 0 1-8.644-4.351l-.938-.642A28.87 28.87 0 0 0 0 27.985h14.003a36.926 36.926 0 0 1 2.749-13.095zm-.749 13.095h11.972V16.948a36.94 36.94 0 0 1-9.309-1.438 34.897 34.897 0 0 0-2.663 12.475zm11.294 29.406A37.098 37.098 0 0 1 17.186 44.05a34.928 34.928 0 0 0-8.492 4.42l-.689.515c4.774 5.003 11.31 8.304 18.605 8.896l.687-.49zm.678-17.368V29.985H16.003a34.912 34.912 0 0 0 2.313 11.58 36.828 36.828 0 0 1 9.659-1.542zm21.261 8.433a34.782 34.782 0 0 0-8.469-4.406 36.969 36.969 0 0 1-10.113 13.344l.685.487c7.295-.592 13.832-3.892 18.606-8.895l-.709-.53zm.649-37.949a37.079 37.079 0 0 1-8.689 4.38 36.944 36.944 0 0 1 2.751 13.098H57.95a28.87 28.87 0 0 0-7.209-18.133l-.856.655zm-21.91 44.835V42.023a34.844 34.844 0 0 0-8.882 1.4 34.94 34.94 0 0 0 8.882 11.919zm13.972-25.357H29.975v10.038a36.85 36.85 0 0 1 9.662 1.542 35.025 35.025 0 0 0 2.31-11.58zM38.86 43.423a34.904 34.904 0 0 0-8.885-1.4v13.323a34.83 34.83 0 0 0 8.885-11.923z"></path>
  </symbol>
  <symbol viewBox="0 0 25 8" xmlns="http://www.w3.org/2000/svg" id="right-arrow">
    <path d="M18.766 3H0v2h18.766v3L25 4l-6.234-4v3z"></path>
  </symbol>
  <symbol viewBox="0 0 24 24" xmlns="http://www.w3.org/2000/svg" id="skype">
    <path d="M23.309 14.547C25.047 6.737 18.205-.358 10.17 1.004 5.808-1.703 0 1.356 0 6.546c0 1.207.333 2.337.912 3.311-1.615 7.828 5.283 14.821 13.311 13.366 5.675 3.001 11.946-2.984 9.086-8.676zm-7.638 4.71c-2.108.867-5.577.872-7.676-.227-2.993-1.596-3.525-5.189-.943-5.189 1.946 0 1.33 2.269 3.295 3.194.902.417 2.841.46 3.968-.3 1.113-.745 1.011-1.917.406-2.477-1.603-1.48-6.19-.892-8.287-3.483-.911-1.124-1.083-3.107.037-4.545 1.952-2.512 7.68-2.665 10.143-.768 2.274 1.76 1.66 4.096-.175 4.096-2.207 0-1.047-2.888-4.61-2.888-2.583 0-3.599 1.837-1.78 2.731 2.466 1.225 8.75.816 8.75 5.603-.005 1.992-1.226 3.477-3.128 4.253z"></path>
  </symbol>
</svg>